:version 1.10
:name ASF
:units
  mass 1
  length 1
  angle deg
:documentation
  ASF file generated by Kaydara
:root
  axis xyz
  order  tx ty tz rx ry rz
  position 0 0 0
  orientation 0 0 0
:bonedata
  begin
    id 1
    name SpineDummy
    direction 0.999998 -0.00179978 1.38929e-006
    length 3.60008
    axis 0 0 0 xyz
  end
  begin
    id 2
    name Spine
    direction 0.964365 0.262802 0.0305839
    length 8.13928
    axis 1.33928 -1.75354 15.2838 xyz
    dof rx ry rz
  end
  begin
    id 3
    name Spine1
    direction 0.811168 0.572065 0.12144
    length 7.14954
    axis 2.2224 -6.9761 35.2157 xyz
    dof rx ry rz
  end
  begin
    id 4
    name Neck
    direction 0 0 0
    length 0
    axis 2.2224 -6.9761 35.2157 xyz
    dof rx ry rz
  end
  begin
    id 5
    name HeadDummy
    direction 0.810939 0.572387 0.121455
    length 3.55534
    axis 2.2224 -6.9761 35.2157 xyz
  end
  begin
    id 6
    name Head
    direction 0.998226 -0.000232542 0.0595419
    length 7.35666
    axis -3.03688 -3.41352 -0.0133467 xyz
    dof rx ry rz
  end
  begin
    id 7
    name R_ClavicleDummy
    direction 0.531669 -0.194489 -0.824319
    length 2.49392
    axis 2.2224 -6.9761 35.2157 xyz
  end
  begin
    id 8
    name R_Clavicle
    direction -0.155119 0.0480802 -0.986725
    length 4.485
    axis -54.2764 80.6538 162.779 xyz
    dof rx ry rz
  end
  begin
    id 9
    name R_UpperArm
    direction -0.955567 0.200068 -0.216484
    length 10.1122
    axis -72.9943 12.5026 168.175 xyz
    dof rx ry rz
  end
  begin
    id 10
    name R_Forearm
    direction -0.61433 0.385743 0.688332
    length 9.39148
    axis -117.015 -43.4982 147.875 xyz
    dof rx ry rz
  end
  begin
    id 11
    name R_Hand
    direction -0.699429 0.0170333 0.714499
    length 3.66324
    axis -45.0303 -36.7097 175.478 xyz
    dof rx ry rz
  end
  begin
    id 12
    name L_ClavicleDummy
    direction 0.40287 -0.36502 0.839319
    length 2.49392
    axis 2.2224 -6.9761 35.2157 xyz
  end
  begin
    id 13
    name L_Clavicle
    direction -0.231271 -0.0726419 0.970174
    length 4.485
    axis 18.4357 -75.9711 -162.563 xyz
    dof rx ry rz
  end
  begin
    id 14
    name L_UpperArm
    direction -0.917494 0.144359 0.370629
    length 10.1122
    axis 56.0417 -21.7544 171.058 xyz
    dof rx ry rz
  end
  begin
    id 15
    name L_Forearm
    direction -0.496786 0.615074 -0.612281
    length 9.39148
    axis 89.8094 37.7546 128.927 xyz
    dof rx ry rz
  end
  begin
    id 16
    name L_Hand
    direction -0.409932 0.64962 -0.640274
    length 3.66324
    axis -0.424369 32.133 128.52 xyz
    dof rx ry rz
  end
  begin
    id 17
    name L_ThighDummy
    direction -1.84081e-006 1.87549e-006 1
    length 3.13049
    axis 0 0 0 xyz
  end
  begin
    id 18
    name L_Thigh
    direction -0.947739 0.307978 0.083308
    length 17.9961
    axis 173.219 -4.77873 161.998 xyz
    dof rx ry rz
  end
  begin
    id 19
    name L_Calf
    direction -0.728814 -0.684427 0.0197583
    length 13.3367
    axis 167.331 -1.13214 -136.799 xyz
    dof rx ry rz
  end
  begin
    id 20
    name L_Foot
    direction -0.9028 0.418719 0.0981191
    length 5.8674
    axis 163.436 11.5135 -155.37 xyz
    dof rx ry rz
  end
  begin
    id 21
    name L_Toe0
    direction -0.35341 0.886259 0.299411
    length 4.75286
    axis 169.316 -17.4222 111.74 xyz
    dof rx ry rz
  end
  begin
    id 22
    name R_ThighDummy
    direction 9.32778e-007 -8.82053e-007 -1
    length 3.13049
    axis 0 0 0 xyz
  end
  begin
    id 23
    name R_Thigh
    direction -0.925064 0.37528 -0.0585023
    length 17.9961
    axis -178.698 3.35385 157.919 xyz
    dof rx ry rz
  end
  begin
    id 24
    name R_Calf
    direction -0.68969 -0.718776 -0.0876886
    length 13.3367
    axis -160.504 5.03065 -133.817 xyz
    dof rx ry rz
  end
  begin
    id 25
    name R_Foot
    direction -0.857405 0.418858 -0.299022
    length 5.8674
    axis -161.328 4.38911 -154.413 xyz
    dof rx ry rz
  end
  begin
    id 26
    name R_Toe0
    direction -0.100745 0.952789 -0.286433
    length 4.75286
    axis 171.683 16.6445 96.0359 xyz
    dof rx ry rz
  end
:hierarchy
  begin
    root SpineDummy L_ThighDummy R_ThighDummy
    SpineDummy Spine
    Spine Spine1
    Spine1 Neck
    Neck HeadDummy R_ClavicleDummy L_ClavicleDummy
    HeadDummy Head
    R_ClavicleDummy R_Clavicle
    R_Clavicle R_UpperArm
    R_UpperArm R_Forearm
    R_Forearm R_Hand
    L_ClavicleDummy L_Clavicle
    L_Clavicle L_UpperArm
    L_UpperArm L_Forearm
    L_Forearm L_Hand
    L_ThighDummy L_Thigh
    L_Thigh L_Calf
    L_Calf L_Foot
    L_Foot L_Toe0
    R_ThighDummy R_Thigh
    R_Thigh R_Calf
    R_Calf R_Foot
    R_Foot R_Toe0
  end

:SAMPLES-PER-SECOND 30
:FULLY-SPECIFIED
:DEGREES
202
root  -2.02892 31.3596 55.086 -79.3424 -5.97289 81.6509
Spine  1.84535 -4.41381 -8.24152
Spine1  1.41785 -4.18774 13.8327
Neck  3.97569e-016 0 -2.38542e-015
Head  -1.30463 -2.55701 14.9618
R_Clavicle  0.361921 -19.6118 -0.346087
R_UpperArm  28.0074 -5.25314 25.7361
R_Forearm  -3.29915 -43.8433 22.9891
R_Hand  -1.1604 8.52938 -20.1799
L_Clavicle  -0.451409 15.9739 -2.02721
L_UpperArm  -1.18368 -2.84217 -0.685361
L_Forearm  -7.10269 20.9809 26.279
L_Hand  -0.173241 -2.69622 -7.10595
L_Thigh  4.08489 -8.79624 -2.01698
L_Calf  0.126978 -1.50159 11.263
L_Foot  4.28568 6.21685 10.4837
L_Toe0  0.505156 0.034446 -6.1361
R_Thigh  5.39345 -6.04233 -14.5369
R_Calf  -8.88613 -4.8232 -15.1777
R_Foot  1.85965 3.35441 -10.885
R_Toe0  -1.40243 -0.318756 -17.6886
203
root  -2.22557 31.5908 54.0408 -81.3825 -6.45952 82.168
Spine  1.1681 -5.18971 -8.79945
Spine1  0.916086 -2.31225 12.4484
Neck  3.97569e-016 0 -2.38542e-015
Head  1.10249 -2.695 16.1385
R_Clavicle  0.378342 -20.2176 -0.217064
R_UpperArm  30.9362 -7.80197 28.1917
R_Forearm  -3.68169 -43.568 23.8048
R_Hand  -1.35101 8.55908 -21.6006
L_Clavicle  -0.431353 15.5178 -1.64147
L_UpperArm  1.55735 -3.71696 -2.28589
L_Forearm  -5.76389 21.1852 26.5824
L_Hand  -0.166283 -2.60644 -6.60555
L_Thigh  2.88644 -7.51281 -5.10863
L_Calf  -0.132942 -1.67521 12.6109
L_Foot  4.64161 6.49909 11.4375
L_Toe0  0.505156 0.034446 -6.1361
R_Thigh  5.19817 -7.03917 -10.8046
R_Calf  -5.51839 -5.07212 -15.9965
R_Foot  1.54498 2.99779 -7.92976
R_Toe0  -1.78853 -0.272897 -17.3236
204
root  -2.36221 31.9543 53.0026 -83.4275 -6.67385 82.9928
Spine  0.144505 -5.90008 -9.09788
Spine1  0.109068 0.0477133 10.0789
Neck  3.97569e-016 0 -2.38542e-015
Head  4.32105 -3.22874 18.2449
R_Clavicle  0.3828 -20.3324 -0.10888
R_UpperArm  32.5177 -10.0086 30.3956
R_Forearm  -2.15347 -42.5907 23.9531
R_Hand  -1.44298 8.89583 -22.2546
L_Clavicle  -0.408667 14.9485 -1.39584
L_UpperArm  2.75535 -3.70963 -2.16688
L_Forearm  -4.59414 21.2596 26.6934
L_Hand  -0.166502 -1.98231 -5.40186
L_Thigh  1.04631 -5.70391 -8.38527
L_Calf  0.505988 -2.03237 15.3342
L_Foot  4.71107 6.50752 11.6787
L_Toe0  0.505156 0.034446 -6.1361
R_Thigh  4.67588 -7.30137 -7.28582
R_Calf  -4.00075 -4.18238 -13.1461
R_Foot  1.28787 2.03476 -7.39766
R_Toe0  -1.78886 -0.273319 -17.3247
205
root  -2.45458 32.4042 51.9787 -85.0787 -6.57056 84.0823
Spine  -1.2436 -6.58039 -9.30713
Spine1  -1.02124 3.07027 7.5133
Neck  3.97569e-016 0 -2.38542e-015
Head  8.15279 -4.1069 20.4285
R_Clavicle  0.383138 -20.2362 0.0179196
R_UpperArm  32.3777 -11.0497 32.2749
R_Forearm  0.292405 -41.3987 23.4688
R_Hand  -1.45 8.87438 -22.3098
L_Clavicle  -0.391717 14.5139 -1.30717
L_UpperArm  2.9505 -3.41098 -0.744359
L_Forearm  -4.30826 21.2446 26.6709
L_Hand  -0.162167 -1.11537 -4.22005
L_Thigh  -1.18996 -3.61165 -11.5638
L_Calf  1.93246 -2.51226 19.0001
L_Foot  4.46678 6.32701 11.0119
L_Toe0  0.505156 0.034446 -6.1361
R_Thigh  4.51175 -7.07143 -4.45241
R_Calf  -4.38573 -2.2777 -7.14144
R_Foot  1.20889 1.46883 -7.8919
R_Toe0  -1.78682 -0.273608 -17.3225
206
root  -2.52792 32.8001 50.9895 -86.1834 -6.01972 84.8837
Spine  -2.84658 -7.89307 -9.54578
Spine1  -2.35817 6.84216 5.05862
Neck  3.97569e-016 0 -2.38542e-015
Head  11.8818 -5.07308 22.1638
R_Clavicle  0.387961 -20.2352 0.278353
R_UpperArm  30.5169 -10.7783 33.8968
R_Forearm  3.14029 -39.9989 22.6037
R_Hand  -1.37589 8.61826 -21.7801
L_Clavicle  -0.38468 14.3228 -1.25698
L_UpperArm  3.46957 -3.17487 1.1523
L_Forearm  -5.47891 21.3797 26.8722
L_Hand  -0.159269 -0.733949 -3.78877
L_Thigh  -3.49772 -2.03692 -14.2095
L_Calf  3.60598 -2.97396 22.625
L_Foot  4.08221 6.301 9.62753
L_Toe0  0.505156 0.034446 -6.1361
R_Thigh  4.74596 -7.08937 -2.43658
R_Calf  -6.10113 0.499662 1.47192
R_Foot  1.19726 1.45042 -7.81181
R_Toe0  -1.76184 -0.273516 -17.3083
207
root  -2.6052 33.0937 50.0309 -86.9998 -5.27809 85.3115
Spine  -4.38858 -9.4874 -9.67005
Spine1  -3.68279 10.8139 2.93675
Neck  3.97569e-016 0 -2.38542e-015
Head  15.0075 -5.93421 23.1776
R_Clavicle  0.395723 -20.2792 0.664797
R_UpperArm  26.7931 -9.77846 35.2263
R_Forearm  7.2744 -37.7129 21.5009
R_Hand  -1.27063 8.59458 -20.9973
L_Clavicle  -0.384837 14.3256 -1.25435
L_UpperArm  4.66598 -3.11308 2.87407
L_Forearm  -7.54043 21.7276 27.3943
L_Hand  -0.15582 -0.802084 -3.76106
L_Thigh  -5.21843 -1.18294 -16.5705
L_Calf  4.52419 -3.46234 25.9536
L_Foot  3.77773 6.57174 8.17559
L_Toe0  0.505156 0.034446 -6.1361
R_Thigh  4.59025 -7.24927 -1.42855
R_Calf  -7.97353 3.99839 12.4145
R_Foot  1.12769 1.04647 -7.98463
R_Toe0  -1.73426 -0.273401 -17.2926
208
root  -2.68837 33.3096 49.0828 -87.8449 -4.76738 85.8142
Spine  -5.62225 -10.3656 -9.67401
Spine1  -4.74938 14.3292 1.65283
Neck  3.97569e-016 0 -2.38542e-015
Head  17.6609 -6.70718 23.2863
R_Clavicle  0.400352 -20.1206 1.01431
R_UpperArm  21.9744 -8.58594 36.0229
R_Forearm  12.3539 -34.5423 20.6925
R_Hand  -1.18395 8.6449 -20.3564
L_Clavicle  -0.388615 14.446 -1.33127
L_UpperArm  6.1301 -3.31083 4.22117
L_Forearm  -9.29895 22.1782 28.078
L_Hand  -0.147271 -0.766997 -3.5273
L_Thigh  -5.56466 -0.557187 -19.2511
L_Calf  3.90043 -4.25941 29.4012
L_Foot  3.54925 6.70023 7.17846
L_Toe0  0.505156 0.034446 -6.1361
R_Thigh  3.52872 -6.99411 -1.64539
R_Calf  -8.36485 7.83706 25.1287
R_Foot  1.27518 1.28822 -8.97043
R_Toe0  -1.79301 -0.274867 -17.326
209
root  -2.73419 33.3895 48.1178 -88.5805 -4.6247 86.3641
Spine  -6.49946 -10.7717 -9.7615
Spine1  -5.42766 17.4649 1.5387
Neck  3.97569e-016 0 -2.38542e-015
Head  19.8389 -7.43792 22.6847
R_Clavicle  0.400848 -19.7168 1.21683
R_UpperArm  17.7683 -7.36112 36.1677
R_Forearm  16.7559 -31.4196 20.4589
R_Hand  -1.11891 8.50988 -19.8631
L_Clavicle  -0.39391 14.6032 -1.42324
L_UpperArm  7.99262 -3.7959 5.14938
L_Forearm  -10.3677 22.7145 28.9033
L_Hand  -0.13717 -0.588107 -3.16276
L_Thigh  -5.13975 0.112983 -22.2423
L_Calf  2.8258 -5.0442 32.5895
L_Foot  3.35027 6.14226 7.07774
L_Toe0  0.505156 0.034446 -6.1361
R_Thigh  2.48194 -6.51989 -2.74568
R_Calf  -6.80003 11.0919 37.5129
R_Foot  1.8339 3.22587 -10.9471
R_Toe0  -1.78853 -0.275289 -17.3234
210
root  -2.67953 33.2996 47.1259 -89.0897 -4.75737 86.8178
Spine  -7.00074 -11.1515 -10.0078
Spine1  -5.61443 20.3737 2.45433
Neck  3.97569e-016 0 -2.38542e-015
Head  21.0334 -8.14374 21.7714
R_Clavicle  0.400759 -19.3205 1.34137
R_UpperArm  14.4515 -5.9631 35.7608
R_Forearm  20.6318 -28.784 20.4891
R_Hand  -1.0941 8.55986 -19.6821
L_Clavicle  -0.400597 14.7781 -1.48174
L_UpperArm  10.5128 -4.42682 5.47698
L_Forearm  -11.0911 23.5077 30.1527
L_Hand  -0.127765 -0.613033 -2.96514
L_Thigh  -5.00239 0.90381 -25.0502
L_Calf  2.56623 -5.26935 34.5881
L_Foot  3.25439 5.15121 7.88685
L_Toe0  0.505156 0.034446 -6.1361
R_Thigh  2.85662 -5.84497 -3.72613
R_Calf  -5.06159 12.7244 45.4919
R_Foot  2.27388 4.03698 -14.601
R_Toe0  -1.78853 -0.275895 -17.3234
211
root  -2.50134 33.0933 46.1263 -89.9797 -5.05479 87.4768
Spine  -6.93223 -10.6583 -10.2665
Spine1  -5.16219 22.303 4.02171
Neck  3.97569e-016 0 -2.38542e-015
Head  21.2974 -8.96271 20.5206
R_Clavicle  0.403299 -19.2221 1.45806
R_UpperArm  11.5612 -4.02786 34.7667
R_Forearm  24.699 -26.6571 20.5274
R_Hand  -1.18717 9.06213 -20.4014
L_Clavicle  -0.41328 15.0867 -1.53513
L_UpperArm  12.6544 -4.80362 5.2041
L_Forearm  -11.4412 24.7357 32.2224
L_Hand  -0.120319 -0.808616 -2.92318
L_Thigh  -5.01716 1.86588 -27.1212
L_Calf  2.25739 -4.81927 34.3608
L_Foot  3.24989 4.12888 9.16604
L_Toe0  0.475943 0.0352243 -6.16199
R_Thigh  2.50559 -4.21964 -3.66924
R_Calf  -4.08027 12.7622 45.9201
R_Foot  2.22541 1.32441 -18.5974
R_Toe0  -1.80954 -0.277006 -17.3353
212
root  -2.23257 32.792 45.113 -91.7861 -5.37376 88.3324
Spine  -6.32049 -8.70812 -10.3804
Spine1  -4.26099 22.4103 5.7925
Neck  3.97569e-016 0 -2.38542e-015
Head  21.6377 -10.0107 18.7849
R_Clavicle  0.403517 -19.3929 1.42673
R_UpperArm  9.90589 -1.55945 32.9491
R_Forearm  27.821 -25.4285 20.5124
R_Hand  -1.40492 9.50464 -21.9399
L_Clavicle  -0.430425 15.4964 -1.63803
L_UpperArm  10.9495 -4.25287 4.9054
L_Forearm  -10.0211 26.9426 34.7424
L_Hand  -0.1173 -1.09153 -3.051
L_Thigh  -4.41267 2.69092 -27.895
L_Calf  0.790609 -4.02102 30.6617
L_Foot  2.92763 2.18845 10.5396
L_Toe0  0.686876 0.0342585 -5.97501
R_Thigh  -0.480829 -1.63689 -2.57078
R_Calf  -3.43703 11.4483 40.1347
R_Foot  1.80925 -2.14416 -18.81
R_Toe0  -1.59865 -0.274702 -17.2328
213
root  -1.92724 32.4458 44.0758 -93.7485 -5.52655 88.9078
Spine  -5.6817 -6.23177 -10.3912
Spine1  -3.4975 21.2109 7.44138
Neck  3.97569e-016 0 -2.38542e-015
Head  22.51 -11.0716 17.188
R_Clavicle  0.394738 -19.4316 1.07557
R_UpperArm  10.0502 0.492729 30.351
R_Forearm  29.0366 -24.8286 20.508
R_Hand  -1.56516 9.46841 -23.0722
L_Clavicle  -0.435009 15.6155 -1.84453
L_UpperArm  1.30697 -2.26313 5.28464
L_Forearm  -4.73093 31.1631 36.2902
L_Hand  -0.107993 -1.86699 -3.45351
L_Thigh  -3.26772 3.12528 -27.0724
L_Calf  -0.772718 -3.17194 23.6016
L_Foot  1.81749 -1.28363 10.9006
L_Toe0  2.52191 -0.057297 -4.50142
R_Thigh  -3.93952 0.638254 -1.14119
R_Calf  -3.13214 9.73576 32.0589
R_Foot  1.01521 -2.53218 -12.8816
R_Toe0  -0.886839 -0.258346 -16.6747
214
root  -1.60946 32.1568 43.027 -94.3885 -5.52597 89.2042
Spine  -5.5831 -4.12424 -10.5175
Spine1  -3.23045 20.0784 8.96366
Neck  3.97569e-016 0 -2.38542e-015
Head  23.0171 -11.7364 16.6867
R_Clavicle  0.375417 -19.0088 0.568626
R_UpperArm  11.3299 1.09449 27.4486
R_Forearm  29.1796 -23.5065 20.2454
R_Hand  -1.54813 9.29496 -22.9741
L_Clavicle  -0.416112 15.2531 -2.19362
L_UpperArm  -8.52819 0.78949 6.50854
L_Forearm  -0.880817 34.8253 37.7313
L_Hand  -0.0770159 -3.11197 -3.97162
L_Thigh  -2.00817 3.59975 -24.5937
L_Calf  -1.04362 -1.98846 14.3954
L_Foot  0.502998 -3.77918 8.42385
L_Toe0  4.60295 -0.324494 -1.32755
R_Thigh  -4.52505 1.81306 -0.764242
R_Calf  -3.68617 8.28856 26.8708
R_Foot  0.740114 -0.900659 -8.28889
R_Toe0  -1.34134 -0.243677 -16.1644
215
root  -1.26427 31.9014 41.9458 -93.4143 -5.76931 89.5251
Spine  -5.97301 -2.39313 -10.7578
Spine1  -3.27142 19.4644 10.5136
Neck  3.97569e-016 0 -2.38542e-015
Head  22.4038 -11.8523 17.1381
R_Clavicle  0.354824 -18.2682 0.305164
R_UpperArm  13.6247 0.619088 24.5536
R_Forearm  28.5052 -21.0383 18.6931
R_Hand  -1.44848 9.31284 -22.2631
L_Clavicle  -0.397193 14.963 -2.68098
L_UpperArm  -12.9054 3.734 8.40791
L_Forearm  -0.756159 36.6955 38.8704
L_Hand  -0.0568817 -3.65657 -3.98901
L_Thigh  0.236439 4.30044 -20.9936
L_Calf  -0.903499 -0.600891 4.0554
L_Foot  -0.0922091 -1.93311 2.3085
L_Toe0  0.692476 -0.123824 2.29944
R_Thigh  -3.65006 2.54254 -1.41599
R_Calf  -3.3497 7.12041 22.8453
R_Foot  0.452254 0.00051961 -3.96851
R_Toe0  -1.64245 -0.237255 -15.9102
